<svg xmlns="http://www.w3.org/2000/svg" xmlns:xlink="http://www.w3.org/1999/xlink" fill="none" version="1.1" width="148" height="104" viewBox="0 0 148 104"><g><path d="M7.84,73.28L9.36,62.32L0.72,64.16L1.84,55.76L10.56,53.92L12.48,39.84L4.08,39.84L5.2,32.24L13.6,32.24L14.56,25.44L12.56,23.12L30.08,23.12L28.8,32.24L35.6,32.24L34.48,39.84L27.68,39.84L26.24,50.48L33.2,48.96L32.08,57.36L25.04,58.88L22.72,75.44Q22.32,77.76,20.52,79.24Q18.72,80.72,16.48,80.72L0.64,80.72L7.84,73.28ZM34.8,80.72L42,73.28L47.52,33.76L36.88,33.76L37.92,26.16L72.88,26.16L71.84,33.76L62.72,33.76L56.88,75.44Q56.48,77.76,54.72,79.24Q52.96,80.72,50.64,80.72L34.8,80.72ZM141.44,37.44L115.68,37.44L114.64,45.12L143.36,45.12L142.32,52.72L113.52,52.72L109.68,80.48L94.56,80.48L98.4,52.72L77.36,52.72L78.4,45.12L99.52,45.12L102.16,26.08L99.52,23.28L117.68,23.28L116.8,29.76L142.56,29.76L141.44,37.44ZM134.72,74.56L121.44,74.56L116.32,56.32L129.6,56.32L134.72,74.56Z" fill="#3D3D3D" fill-opacity="1"/></g></svg>