<svg xmlns="http://www.w3.org/2000/svg" xmlns:xlink="http://www.w3.org/1999/xlink" fill="none" version="1.1" width="148" height="104" viewBox="0 0 148 104"><g><path d="M63.84,71.68L54.88,72.96L64.08,80.48L46.4,80.48L25.76,63.52L20.96,63.52L19.84,71.52L31.04,70.48L29.92,78.24L3.68,80.56L9.52,38.8L29.2,38.8L29.92,33.68L45.12,33.68L44.4,38.8L65.04,38.8L61.6,63.52L43.44,63.52L47.12,66.56L64.88,64.08L63.84,71.68ZM54.48,37.44L46.72,31.12L29.6,31.12L19.36,37.44L3.44,37.44L19.36,26.32L17.68,24.64L57.44,24.64L70.16,37.44L54.48,37.44ZM23.04,48.24L50,48.24L50.48,45.2L23.52,45.2L23.04,48.24ZM48.8,57.12L49.2,54.08L22.24,54.08L21.84,57.12L48.8,57.12ZM120.64,30.72L146.4,30.72L140.16,75.44Q139.76,77.76,138.08,78.56Q136.4,79.36,134.16,79.36L124.4,79.36L127.84,76.32L133.2,38.32L132.16,38.32L120.64,79.36L111.52,79.36L123.04,38.32L120.8,38.32L109.2,79.36L100.08,79.36L110.4,42.88L105.2,42.88L111.12,25.04L109.52,23.12L123.2,23.12L120.64,30.72ZM89.52,35.28L92.56,35.28L94.32,23.12L104.96,23.12L103.2,35.28L104.72,35.28L103.68,42.88L102.16,42.88L100.16,56.88L103.28,56.56L102.24,64.16L99.04,64.56L96.8,80.72L84.64,80.72L86.72,65.84L74.4,67.2L75.52,59.6L87.84,58.24L90,42.88L87.68,42.88L85.92,50.48L76.8,50.48L81.76,29.76L80,27.68L91.36,27.68L89.52,35.28Z" fill="#3D3D3D" fill-opacity="1"/></g></svg>