<svg xmlns="http://www.w3.org/2000/svg" xmlns:xlink="http://www.w3.org/1999/xlink" fill="none" version="1.1" width="140.82037353515625" height="169.52072143554688" viewBox="0 0 140.82037353515625 169.52072143554688"><g><path d="M125.852,44.3668C125.275,43.398,124.064,43.0133,123.039,43.4801C118.842,45.3902,108.359,50.9215,103.648,60.3004C103.309,60.9781,102.291,60.7184,102.32,59.9586C103.168,38.4352,90.5859,10.8863,63.5723,0.157804C62.4824,-0.275789,61.2441,0.212492,60.7461,1.27499C57.2012,8.83945,43.043,37.6148,25.8906,52.9781C10.0898,65.8727,0,85.5016,0,107.488C0,132.705,13.2754,154.82,33.2168,167.23C37.1348,169.668,41.9512,165.877,40.5723,161.474C31.7988,133.437,60.9023,112.818,72.0762,106.097C73.6719,105.136,75.6719,106.449,75.418,108.295C74.623,114.084,74.293,123.804,80.043,127.769C88.4805,133.587,103.553,137.566,97.832,163.261L97.8027,163.39C96.8535,167.605,101.324,170.992,105.086,168.869C125.379,157.416,139.1,135.836,140.621,109.296C142.572,75.2359,129.645,50.7535,125.852,44.3668ZM49.8418,51.816C49.5156,52.2555,41.7402,62.6383,33.752,69.443C33.0468,70.0465,32.1489,70.3777,31.2207,70.3766C30.1152,70.3766,29.0176,69.9098,28.2461,69.0035C26.8477,67.3609,27.0449,64.8961,28.6875,63.4977C36.0137,57.2574,43.5059,47.2477,43.5801,47.148C44.8691,45.4176,47.3164,45.0621,49.0469,46.3512C50.7773,47.6402,51.1328,50.0855,49.8418,51.816Z" fill="#D81E06" fill-opacity="1"/></g></svg>