<svg xmlns="http://www.w3.org/2000/svg" xmlns:xlink="http://www.w3.org/1999/xlink" fill="none" version="1.1" width="148" height="104" viewBox="0 0 148 104"><g><path d="M2.88,79.36L7.04,71.44L10.8,44.4L7.76,44.4L8.88,36.8L25.6,36.8L21.12,68.48L32.08,71.76L69.28,71.76L68.24,79.36L25.68,79.36L17.76,77.04L16.56,79.36L2.88,79.36ZM64.48,52L66.72,68.72L54.56,68.72L54.24,66.64L25.76,68L26.72,61.12L34.08,47.44L27.12,47.44L28.16,39.84L70.72,39.84L69.68,47.44L49.28,47.44L42.32,60.4L53.36,59.92L52.32,52L64.48,52ZM69.84,24.72L68.8,32.24L32.32,32.24L33.36,24.72L69.84,24.72ZM22.72,24.64L26,33.76L13.84,33.76L10.56,24.64L22.72,24.64ZM117.76,39.84L113.44,39.84L114.56,32.24L119.68,32.24L121.28,25.84L118.88,23.12L134.08,23.12L131.84,32.24L146.48,32.24L140.4,75.44Q140,77.76,138.24,79.24Q136.48,80.72,134.16,80.72L121.44,80.72L128.48,73.36L133.2,39.84L129.92,39.84L119.84,80.72L107.68,80.72L117.76,39.84ZM105.92,61.12L105.44,80.72L93.28,80.72L93.28,78.56L74.24,80.72L75.36,73.28L83.04,48.96L78.72,48.96L79.84,41.36L110.24,41.36L109.12,48.96L95.2,48.96L87.92,71.76L93.52,71.12L93.76,61.12L105.92,61.12ZM110.8,26.16L109.76,33.76L82.4,33.76L83.44,26.16L110.8,26.16Z" fill="#3D3D3D" fill-opacity="1"/></g></svg>