<svg xmlns="http://www.w3.org/2000/svg" xmlns:xlink="http://www.w3.org/1999/xlink" fill="none" version="1.1" width="295" height="104" viewBox="0 0 295 104"><g><path d="M30.24,23.12L28.48,26.16L70.8,26.16L69.76,33.76L24.16,33.76L22.88,36L67.92,36L66,49.76L70.56,49.76L69.6,56.56L65.04,56.56L64.08,63.36L67.04,63.36L65.92,71.04L62.96,71.04L62.4,75.44Q62,77.76,60.24,79.24Q58.48,80.72,56.16,80.72L25.12,80.72L32.32,73.28L50.56,73.28L50.88,71.04L9.6,71.04L11.6,56.56L2.72,56.56L3.68,49.76L12.56,49.76L13.36,44.4L4.4,44.4L15.36,25.28L13.52,23.12L30.24,23.12ZM27.36,42.88L26.4,49.76L33.2,49.76L32.4,45.2L46.08,45.2L46.88,49.76L53.84,49.76L54.8,42.88L27.36,42.88ZM45.76,58.8L46.64,63.36L51.92,63.36L52.88,56.56L25.44,56.56L24.48,63.36L32.96,63.36L32.08,58.8L45.76,58.8ZM143.12,24.64L135.44,79.36L77.68,79.36L84.96,27.68L82.32,24.64L143.12,24.64ZM121.28,71.76L123.6,55.04L96.24,55.04L93.92,71.76L121.28,71.76ZM97.36,47.44L124.72,47.44L126.88,32.24L99.52,32.24L97.36,47.44ZM196.72,80.56L200.4,76L201.44,68.64L182.72,68.64L181.04,80.56L168.24,80.56L174.16,38.4L190.48,38.4L192.24,25.52L189.6,23.12L204.88,23.12L202.72,38.4L218.72,38.4L213.52,75.12Q213.2,77.36,211.4,78.96Q209.6,80.56,207.28,80.56L196.72,80.56ZM147.52,80.64L154.96,57.92L168.48,57.92L161.04,80.64L147.52,80.64ZM155.6,54.96L154.56,41.28L168.08,41.28L169.12,54.96L155.6,54.96ZM157.92,38.32L156.88,24.64L170.4,24.64L171.44,38.32L157.92,38.32ZM188.4,36.48L177.12,36.48L175.36,25.52L186.4,25.52L188.4,36.48ZM209.44,27.28L208.16,25.76L220.4,25.76L216.4,36.4L206.08,36.4L209.44,27.28ZM183.6,62.08L202.32,62.08L203.04,57.2L184.32,57.2L183.6,62.08ZM185.2,50.64L203.92,50.64L204.64,45.76L185.92,45.76L185.2,50.64ZM288.64,62.64L277.76,63.12L276.48,72.16L285.84,72.16L289.28,69.12L287.68,80.64L261.76,80.64L264.08,63.76L254.96,64.16L256,56.56L265.2,56.16L266.24,48.64L257.12,49.04L258.24,41.44L267.36,41.04L268.4,33.12L259.28,33.92L260.32,26.32L294,23.36L292.96,30.96L282.08,31.92L280.96,40.4L291.68,39.84L290.64,47.44L279.84,48L278.8,55.52L289.76,55.04L288.64,62.64ZM235.84,38.96L236.32,35.2L227.36,35.2L228.32,28.24L237.36,28.24L237.84,24.72L234.96,23.28L250.16,23.28L249.44,28.24L258.56,28.24L257.6,35.2L248.48,35.2L247.92,38.96L255.44,38.96L254.48,45.92L246.96,45.92L246.48,49.6L255.44,49.6L254.48,56.48L244,56.48L240.64,80.64L231.36,80.64L234.72,56.48L224.32,56.48L225.28,49.6L234.32,49.6L234.8,45.92L227.2,45.92L228.16,38.96L235.84,38.96ZM233.52,58L228.8,79.12L221.2,79.12L225.76,58L233.52,58ZM252.88,58L251.2,79.2L243.68,79.2L245.36,58L252.88,58Z" fill="#6356DE" fill-opacity="1"/></g></svg>