<svg xmlns="http://www.w3.org/2000/svg" xmlns:xlink="http://www.w3.org/1999/xlink" fill="none" version="1.1" width="295" height="104" viewBox="0 0 295 104"><g><path d="M30.24,23.12L28.48,26.16L70.8,26.16L69.76,33.76L24.16,33.76L22.88,36L67.92,36L66,49.76L70.56,49.76L69.6,56.56L65.04,56.56L64.08,63.36L67.04,63.36L65.92,71.04L62.96,71.04L62.4,75.44Q62,77.76,60.24,79.24Q58.48,80.72,56.16,80.72L25.12,80.72L32.32,73.28L50.56,73.28L50.88,71.04L9.6,71.04L11.6,56.56L2.72,56.56L3.68,49.76L12.56,49.76L13.36,44.4L4.4,44.4L15.36,25.28L13.52,23.12L30.24,23.12ZM27.36,42.88L26.4,49.76L33.2,49.76L32.4,45.2L46.08,45.2L46.88,49.76L53.84,49.76L54.8,42.88L27.36,42.88ZM45.76,58.8L46.64,63.36L51.92,63.36L52.88,56.56L25.44,56.56L24.48,63.36L32.96,63.36L32.08,58.8L45.76,58.8ZM143.12,24.64L135.44,79.36L77.68,79.36L84.96,27.68L82.32,24.64L143.12,24.64ZM121.28,71.76L123.6,55.04L96.24,55.04L93.92,71.76L121.28,71.76ZM97.36,47.44L124.72,47.44L126.88,32.24L99.52,32.24L97.36,47.44ZM215.68,52.24L212.16,52.32L211.92,54.4L199.84,54.4L200.08,52.64L172.88,53.36L173.68,47.36L178.16,47.28L180.48,30.8L175.84,30.8L176.72,24.72L220.72,24.72L219.84,30.8L215.2,30.8L212.96,46.64L216.48,46.56L215.68,52.24ZM200.8,62.96L200.72,63.6L202.64,66.16L203.92,64.8L204.4,61.36L192.8,61.36L193.6,55.44L213.52,55.44L212,66.4L206.96,72L213.6,80.64L203.92,80.64L201.76,77.76L199.2,80.64L182.56,80.64L180.4,77.76L177.84,80.64L167.76,80.64L176,71.84L170.88,64.8L171.12,62.96L179.44,62.96L179.36,63.6L181.28,66.16L182.56,64.8L183.04,61.36L171.44,61.36L172.24,55.44L192.16,55.44L190.64,66.4L185.6,72L190.8,78.8L197.36,71.84L192.24,64.8L192.48,62.96L200.8,62.96ZM156.32,53.2L158.16,39.84L152.8,39.84L153.92,32.24L159.28,32.24L160.24,25.52L158.16,23.28L171.76,23.28L170.48,32.24L173.68,32.24L172.56,39.84L169.44,39.84L168,49.84L171.04,48.96L169.92,57.36L166.88,58.24L164.48,75.36Q164.16,77.6,162.4,79.12Q160.64,80.64,158.32,80.64L147.28,80.64L153.44,73.44L155.12,61.52L149.52,63.12L150.72,54.8L156.32,53.2ZM192.16,33.28L202.8,33.28L203.12,30.8L192.56,30.8L192.16,33.28ZM190.24,47.04L200.88,46.88L201.2,44.64L190.56,44.64L190.24,47.04ZM191.2,40.08L201.84,40.08L202.16,37.84L191.52,37.84L191.2,40.08ZM264.48,32.24L243.12,32.24L247.36,23.92L276.96,23.92L291.04,80.72L275.84,80.72L264.48,32.24ZM262.24,36.8L239.36,80.72L224.16,80.72L247.04,36.8L262.24,36.8Z" fill="#9060DF" fill-opacity="1"/></g></svg>