<svg xmlns="http://www.w3.org/2000/svg" xmlns:xlink="http://www.w3.org/1999/xlink" fill="none" version="1.1" width="496" height="204" viewBox="0 0 496 204"><g><path d="M23.608,39.26L16.432,41.132L15.34,49.036Q15.08,50.544,13.936,51.506Q12.792,52.468,11.284,52.468L1.456,52.468L6.084,47.684L6.656,43.732L1.04,45.188L1.82,39.728L7.436,38.272L8.528,30.368L3.12,30.368L3.848,25.428L9.256,25.428L9.672,22.204L5.148,22.932L5.876,17.992L24.076,15.028L23.348,19.968L19.344,20.644L18.668,25.428L27.872,25.428L26.312,16.484L25.064,15.028L34.944,15.028L36.764,25.428L46.8,25.428L46.072,30.368L37.596,30.368L38.636,36.244L45.76,32.812L44.824,39.26L39.572,41.756L40.456,46.644L42.328,46.644L44.616,44.668L43.472,52.468L32.604,52.468L31.408,45.656L23.14,49.608L24.076,43.16L30.42,40.144L28.704,30.368L17.94,30.368L17.212,35.672L24.388,33.8L23.608,39.26ZM46.644,22.932L37.752,22.932L36.764,16.016L45.656,16.016L46.644,22.932ZM68.796,30.316L63.7,31.668L61.776,45.656L89.44,45.656L91.676,43.68L90.584,51.584L51.064,51.584L53.456,34.32L49.348,35.36L50.076,30.42L54.184,29.38L55.484,19.968L53.768,17.992L65.624,17.992L64.376,26.728L69.524,25.376L70.772,16.484L69.472,15.028L80.392,15.028L79.3,22.88L94.172,18.98L91.728,36.192Q91.52,37.7,90.376,38.714Q89.232,39.728,87.724,39.728L79.404,39.728L81.64,37.752L83.2,26.572L78.572,27.768L76.648,41.704L67.236,41.704L68.796,30.316ZM114.92,16.952L113.308,15.08L127.244,15.08L126.984,16.952L142.22,16.952L141.544,20.904L126.412,20.904L126.256,21.84L140.452,21.84L139.88,25.896L100.516,25.896L101.088,21.84L114.348,21.84L114.452,20.904L100.204,20.904L100.88,16.952L114.92,16.952ZM137.488,42.588L136.24,51.376L96.98,51.376L98.228,42.588L137.488,42.588ZM138.684,26.78L137.592,34.736L100.256,34.736L101.348,26.78L138.684,26.78ZM113.984,37.596L122.72,37.596L123.708,35.464L133.588,35.464L132.6,37.596L139.256,37.596L138.684,41.704L97.188,41.704L97.76,37.596L104.104,37.596L103.74,35.464L113.62,35.464L113.984,37.596ZM126.308,47.892L126.568,46.072L108.108,46.072L107.848,47.892L126.308,47.892ZM127.92,31.356L128.18,29.64L111.124,29.64L110.864,31.356L127.92,31.356ZM154.492,27.404L154.908,31.46L156.676,27.352L157.352,22.464L148.46,22.464L149.188,17.524L164.944,17.524L163.54,27.456L157.664,38.896L160.68,52.312L154.232,52.312L153.192,47.58L150.592,52.416L143.156,52.416L150.332,38.74L147.888,27.404L148.408,23.92L155.012,23.92L154.492,27.404ZM177.58,36.348L179.764,36.348L187.148,52.364L178.464,52.364L174.2,43.108L169.624,52.312L161.096,52.312L173.992,26.832L182.312,26.832L177.58,36.348ZM176.956,18.824L191.776,18.824L190.996,24.388L189.072,29.744L182.208,29.744L184.392,23.816L174.512,23.816L171.6,29.848L163.592,29.848L169.52,16.432L168.272,15.028L178.828,15.028L176.956,18.824ZM206.544,20.956L202.072,52.468L192.66,52.468L196.872,22.88L193.804,23.452L194.636,17.524L207.376,15.028L206.544,20.956ZM223.34,49.036Q223.08,50.544,221.91,51.506Q220.74,52.468,219.232,52.468L209.456,52.468L214.136,47.632L217.152,25.896L226.564,25.896L223.34,49.036ZM210.392,16.328L209.352,15.028L218.712,15.028L217.516,18.98L237.9,18.98L235.82,26.884L227.916,26.884L228.696,23.92L216.06,23.92L214.916,27.872L207.012,27.872L210.392,16.328ZM234.416,29.848L233.74,48.672L227.344,48.672L227.968,29.848L234.416,29.848ZM214.656,29.848L210.028,48.62L203.632,48.62L208.26,29.848L214.656,29.848ZM207.064,174.792L156.052,174.792L156.884,169.488L207.948,169.488L207.064,174.792ZM259.064,174.792L208.052,174.792L208.884,169.488L259.948,169.488L259.064,174.792ZM269.828,184.88L273.312,160.44L262.34,160.44L262.86,155.448L294.788,155.448L293.8,160.44L283.296,160.44L279.812,184.88L269.828,184.88ZM334.932,155.448L331.396,181.396Q331.396,182.904,330.174,183.892Q328.952,184.88,327.444,184.88L299.468,184.88L302.952,157.424L301.444,155.448L334.932,155.448ZM312.936,160.44L309.972,179.888L321.932,179.888L324.948,160.44L312.936,160.44ZM353.808,152.432L352.352,162.936L368.316,162.936L365.82,181.396Q365.404,182.904,364.364,183.892Q363.324,184.88,361.816,184.88L339.352,184.88L343.824,153.94L342.836,152.432L353.808,152.432ZM351.832,167.928L350.116,179.888L356.044,179.888L357.812,167.928L351.832,167.928ZM384.436,162.936L383.448,169.904L390.468,162.936L400.452,162.936L383.448,177.912L382.46,184.88L372.476,184.88L375.388,164.392L374.348,162.936L384.436,162.936ZM426.712,162.936Q428.22,162.936,428.974,164.158Q429.728,165.38,429.728,166.888L427.232,184.88L404.768,184.88Q403.26,184.88,402.506,183.892Q401.752,182.904,401.752,181.396L404.248,162.936L426.712,162.936ZM413.712,167.928L411.736,179.888L417.716,179.888L419.744,167.928L413.712,167.928ZM448.344,152.432L446.368,166.888L452.868,162.416L463.84,162.416L449.852,171.88L460.824,184.88L449.852,184.88L444.86,178.38L443.872,184.88L433.888,184.88L438.36,153.94L436.904,152.432L448.344,152.432ZM491.868,175.884L475.904,175.884L475.384,179.888L489.372,179.888L491.868,177.912L490.36,184.88L468.416,184.88Q466.908,184.88,466.154,183.892Q465.4,182.904,465.4,181.396L467.896,162.936L493.844,162.936L491.868,175.884ZM477.36,167.928L476.892,170.892L482.872,170.892L483.392,167.928L477.36,167.928Z" fill="#3D3D3D" fill-opacity="1"/></g></svg>