<svg xmlns="http://www.w3.org/2000/svg" xmlns:xlink="http://www.w3.org/1999/xlink" fill="none" version="1.1" width="240" height="120" viewBox="0 0 240 120"><g><g><rect x="0" y="0" width="240" height="120" rx="40" fill="#48E1AA" fill-opacity="1"/></g><g><path d="M64.8,46.48L71.28,39.04L54.32,39.04L55.2,32.72L86.32,32.72L75.12,46.48L96.4,46.48L87.03999999999999,32.879999999999995L100.8,32.879999999999995L102.8,35.84L115.12,31.2L114.16,38.4L106.64,41.2L107.84,42.88L118.08,39.120000000000005L117.12,45.52L111.2,47.68L116.88,55.68L102.8,55.68L100.96000000000001,53.12L100.88,53.92L69.84,53.92L69.92,52.96L67.76,55.68L50.56,55.68L51.44,49.6L57.519999999999996,49.6L53.76,42.16L62.56,42.16L64.8,46.48ZM112.24,57.6L109.92,74L52.16,74L54.480000000000004,57.6L112.24,57.6ZM57.6,81.44L55.12,75.68L71.03999999999999,75.68L73.52,81.44L87.2,81.44L90.72,75.68L106.64,75.68L103.12,81.44L111.92,81.44L110.96,88.56L47.44,88.56L48.4,81.44L57.6,81.44ZM95.6,68.16L96.24000000000001,63.52L68.88,63.52L68.24,68.16L95.6,68.16ZM171.28,42.8L171.76,39.44L133.76,39.44L134.64,32.879999999999995L187.44,32.879999999999995L184.72,52.48L191.12,52.48L190.16,59.12L166,59.12L162.56,83.44Q162.24,85.76,160.48000000000002,87.24Q158.72,88.72,156.4,88.72L140.16,88.72L147.28,81.28L150.4,59.12L126.8,59.12L127.76,52.48L169.92000000000002,52.48L170.4,49.04L132.4,49.04L133.28,42.8L171.28,42.8ZM121.6,86.32L130.16,72.48L145.36,72.48L136.8,86.32L121.6,86.32ZM171.51999999999998,86.32L167.04000000000002,72.48L182.24,72.48L186.72,86.32L171.51999999999998,86.32ZM130.32,70.72L127.04,61.36L142.24,61.36L145.51999999999998,70.72L130.32,70.72ZM167.36,70.72L173.2,61.36L188.4,61.36L182.56,70.72L167.36,70.72Z" fill="#3D3D3D" fill-opacity="1"/></g></g></svg>