<svg xmlns="http://www.w3.org/2000/svg" xmlns:xlink="http://www.w3.org/1999/xlink" fill="none" version="1.1" width="148" height="104" viewBox="0 0 148 104"><g><path d="M28.8,60.56L29.52,55.28L7.36,55.28L11.36,27.28L8.96,24.64L70.8,24.64L66.48,55.28L44.08,55.28L43.36,60.56L67.44,60.56L66.32,68.72L42.24,68.72L40.56,80.64L26,80.64L27.68,68.72L2.72,68.72L3.84,60.56L28.8,60.56ZM25.52,36.88L53.84,36.88L54.56,31.84L26.24,31.84L25.52,36.88ZM52.24,48.16L52.88,43.6L24.56,43.6L23.92,48.16L52.24,48.16ZM120.16,35.36L120.72,31.76L107.36,32.24L108.48,24.72L146.4,23.36L145.36,30.8L132.08,31.28L131.52,35.36L145.52,35.36L144.56,42.4L142.4,42.4L141.6,48.32L145.28,48.32L144.32,55.52L140.64,55.52L139.84,61.12L141.92,61.12L140.88,68.48L126.88,68.48L126.4,71.76L142,71.76L140.96,79.2L98.48,79.2L99.52,71.76L115.04,71.76L115.52,68.48L101.52,68.48L102.56,61.12L104.64,61.12L105.44,55.52L101.92,55.52L102.88,48.32L106.48,48.32L107.28,42.4L105.2,42.4L106.16,35.36L120.16,35.36ZM96.96,79.12L74.4,79.12L82,24.88L104.56,24.88L96.96,79.12ZM86.8,55.52L90.96,55.52L91.92,48.72L87.76,48.72L86.8,55.52ZM88.96,40.24L93.12,40.24L94.08,33.44L89.92,33.44L88.96,40.24ZM88.88,70.72L89.84,63.92L85.68,63.92L84.72,70.72L88.88,70.72ZM116.16,48.32L118.32,48.32L119.2,42.4L116.96,42.4L116.16,48.32ZM114.32,61.12L116.56,61.12L117.36,55.52L115.12,55.52L114.32,61.12ZM129.68,48.32L131.76,48.32L132.56,42.4L130.56,42.4L129.68,48.32ZM127.92,61.12L130,61.12L130.8,55.52L128.72,55.52L127.92,61.12Z" fill="#3D3D3D" fill-opacity="1"/></g></svg>