<svg xmlns="http://www.w3.org/2000/svg" xmlns:xlink="http://www.w3.org/1999/xlink" fill="none" version="1.1" width="148" height="104" viewBox="0 0 148 104"><g><path d="M29.2,79.36L26.72,76.48L25.6,79.2L16.72,79.2L20.72,69.36L17.36,65.36L18.8,55.04L24.24,60.88L27.92,51.84L28,51.2L20,51.2L29.12,32.08L22.8,32.08L23.6,26.16L40.16,26.16L39.36,32.08L32.64,45.36L37.76,45.36L36.8,51.84L30.4,67.44L34.4,71.68L42.64,71.68L43.2,67.6L36.48,67.6L37.28,61.52L44,61.52L44.4,58.72L38.8,58.72L39.68,52.64L45.28,52.64L45.68,49.44L39.36,49.44L40.24,43.36L46.56,43.36L46.88,40.96L38.64,40.96L39.52,34.88L47.76,34.88L48.08,32.48L40.8,32.48L41.68,26.32L48.88,26.32L46.32,23.28L60.64,23.28L60.16,26.32L70.8,26.32L69.6,34.88L71.44,34.88L70.56,40.96L68.72,40.96L67.52,49.44L56.96,49.44L56.48,52.64L65.92,52.64L65.04,58.72L55.68,58.72L55.28,61.52L66,61.52L65.2,67.6L54.4,67.6L53.84,71.68L66.24,71.68L65.2,79.36L29.2,79.36ZM20.64,32.56L13.92,80.64L2.08,80.64L8.4,35.52L4.48,36.4L5.84,27.12L21.92,23.28L20.64,32.56ZM59.28,32.48L58.96,34.88L61.44,34.88L61.76,32.48L59.28,32.48ZM60.24,43.36L60.56,40.96L58.08,40.96L57.76,43.36L60.24,43.36ZM82.72,56.56L86.56,29.2L95.84,29.2L99.84,24.88L98.32,23.12L119.6,23.12L114.08,29.2L145.84,29.2L139.52,73.92Q139.2,76.24,137.44,77.8Q135.68,79.36,133.36,79.36L117.52,79.36L124.64,71.76L125.68,64.16L107.6,64.16L91.68,79.36L74.96,79.36L90.88,64.16L77.04,64.16L78.16,56.56L82.72,56.56ZM97.92,56.56L126.8,56.56L127.2,53.52L98.32,53.52L97.92,56.56ZM100.4,38.32L129.28,38.32L129.76,35.28L100.88,35.28L100.4,38.32ZM99.2,47.44L128.08,47.44L128.48,44.4L99.6,44.4L99.2,47.44Z" fill="#3D3D3D" fill-opacity="1"/></g></svg>