<svg xmlns="http://www.w3.org/2000/svg" xmlns:xlink="http://www.w3.org/1999/xlink" fill="none" version="1.1" width="148" height="104" viewBox="0 0 148 104"><g><path d="M28.8,60.56L29.52,55.28L7.36,55.28L11.36,27.28L8.96,24.64L70.8,24.64L66.48,55.28L44.08,55.28L43.36,60.56L67.44,60.56L66.32,68.72L42.24,68.72L40.56,80.64L26,80.64L27.68,68.72L2.72,68.72L3.84,60.56L28.8,60.56ZM25.52,36.88L53.84,36.88L54.56,31.84L26.24,31.84L25.52,36.88ZM52.24,48.16L52.88,43.6L24.56,43.6L23.92,48.16L52.24,48.16ZM91.44,29.12L91.84,26.24L89.36,23.2L105.28,23.2L104.4,29.12L112.16,29.12L111.12,36L103.44,36L102.64,42L112.4,42L111.36,49.6L104.08,49.6L103.28,55.04L110.32,55.04L109.2,63.2L102.16,63.2L100.96,71.68L140.96,71.68L139.84,79.36L98.88,79.36L84.96,74.48L83.6,80L74.48,80L80.8,54.64L78.48,51.92L90.64,51.92L87.2,65.68L89.28,66.48L91.68,49.6L78.8,49.6L79.84,42L89.6,42L90.4,36L82.72,36L83.76,29.12L91.44,29.12ZM131.84,41.36L133.2,32L116.8,32L117.76,24.8L146.32,24.8L142.96,48.56L126.48,48.56L124.72,61.6L138.4,61.6L141.92,58.56L140.4,69.36L111.44,69.36L115.36,41.36L131.84,41.36Z" fill="#3D3D3D" fill-opacity="1"/></g></svg>