<svg xmlns="http://www.w3.org/2000/svg" xmlns:xlink="http://www.w3.org/1999/xlink" fill="none" version="1.1" width="148" height="104" viewBox="0 0 148 104"><g><path d="M49.04,28.8L72.96,28.8L68.24,62.24Q67.92,64.4,66.2,65.92Q64.48,67.44,62.32,67.44L51.44,67.44L57.6,61.36L61.2,36.08L45.84,36.08L43.68,40.96L58.56,40.96L55.68,61.6L43.44,61.6L42.16,70.56L65.84,70.56L69.2,67.6L67.6,79.28L30.16,79.28L35.04,44.24L31.76,44.24L40.08,25.36L38.16,23.2L51.52,23.2L49.04,28.8ZM12.96,49.68L9.76,72.24L12.32,71.92L15.76,47.2L6.72,47.2L9.92,24.64L34.24,24.64L31.04,47.2L26.16,47.2L25.2,54.48L30.88,54.48L29.84,61.44L24.16,61.44L22.88,70.56L29.2,69.68L28.16,77.12L0.64,80.56L1.6,73.28L2.88,73.12L6.24,49.68L12.96,49.68ZM19.04,30.64L17.6,41.2L21.92,41.2L23.36,30.64L19.04,30.64ZM45.44,47.04L44.24,55.52L48.4,55.52L49.6,47.04L45.44,47.04ZM85.68,41.36L87.52,28.48L85.52,26.16L103.04,26.16L100.88,41.36L106.96,41.36L109.12,26.16L106.48,23.12L124.72,23.12L123.84,29.2L145.2,29.2L144.08,36.8L122.8,36.8L122.16,41.36L146.48,41.36L145.44,48.96L121.12,48.96L118.56,67.2L103.36,67.2L105.92,48.96L78.56,48.96L79.6,41.36L85.68,41.36ZM118.72,70.24L128.32,52.08L143.52,52.08L129.04,79.36L74.32,79.36L75.6,70.24L118.72,70.24ZM77.52,67.2L87.28,52L102.48,52L92.72,67.28L77.52,67.2Z" fill="#3D3D3D" fill-opacity="1"/></g></svg>