<svg xmlns="http://www.w3.org/2000/svg" xmlns:xlink="http://www.w3.org/1999/xlink" fill="none" version="1.1" width="15" height="15" viewBox="0 0 15 15"><defs><clipPath id="master_svg0_232_1362"><rect x="0" y="0" width="15" height="15" rx="0"/></clipPath></defs><g clip-path="url(#master_svg0_232_1362)"><g><path d="M4.6875,12.1875C4.94638,12.1875,5.15625,11.9776,5.15625,11.7188L5.15625,6.5625C5.15625,6.30362,4.94638,6.09375,4.6875,6.09375C4.4286200000000004,6.09375,4.21875,6.30362,4.21875,6.5625L4.21875,11.7188C4.21875,11.9776,4.4286200000000004,12.1875,4.6875,12.1875ZM7.5,12.1875C7.75888,12.1875,7.96875,11.9776,7.96875,11.7188L7.96875,6.5625C7.96875,6.30362,7.75888,6.09375,7.5,6.09375C7.24112,6.09375,7.03125,6.30362,7.03125,6.5625L7.03125,11.7188C7.03125,11.9776,7.24112,12.1875,7.5,12.1875ZM10.3125,12.1875C10.57135,12.1875,10.78125,11.9776,10.78125,11.7188L10.78125,6.5625C10.78125,6.30362,10.57135,6.09375,10.3125,6.09375C10.05362,6.09375,9.84375,6.30362,9.84375,6.5625L9.84375,11.7188C9.84375,11.9776,10.05362,12.1875,10.3125,12.1875ZM12.65625,1.40625L10.71445,1.40625C10.50145,0.580997,9.75856,0.00328085,8.90625,0L6.09375,0C5.24116,0.00294155,4.4979,0.580729,4.28476,1.40625L2.34375,1.40625C1.308216,1.40625,0.46875,2.24572,0.46875,3.28125L0.46875,3.75L0.9375,3.75L0.9375,4.21875L1.875,4.21875L1.875,13.125C1.875,14.1605,2.71447,15,3.75,15L11.24995,15C12.28555,15,13.12495,14.1605,13.12495,13.125L13.12495,4.21875L14.06255,4.21875L14.06255,3.75L14.53125,3.75L14.53125,3.28125C14.53125,2.24572,13.69175,1.40625,12.65625,1.40625ZM6.09375,0.9375L8.90625,0.9375C9.2396,0.938631,9.54711,1.11725,9.71325,1.40625L5.28825,1.40625C5.45412,1.11771,5.76093,0.939162,6.09375,0.9375ZM12.18755,13.125C12.18705,13.6426,11.76755,14.0621,11.24995,14.0625L3.75,14.0625C3.23325,14.0625,2.74726,13.6425,2.74726,13.125L2.8125,4.21875L12.18755,4.21875L12.18755,13.125ZM1.40625,3.28125C1.4066619999999999,2.76365,1.82615,2.34416,2.34375,2.34375L12.65625,2.34375C13.17385,2.34416,13.59335,2.76365,13.59375,3.28125L1.40625,3.28125Z" fill="#949090" fill-opacity="1"/></g></g></svg>