<svg xmlns="http://www.w3.org/2000/svg" xmlns:xlink="http://www.w3.org/1999/xlink" fill="none" version="1.1" width="396" height="66" viewBox="0 0 396 66"><defs><filter id="master_svg0_173_407" filterUnits="objectBoundingBox" color-interpolation-filters="sRGB" x="-20" y="-16" width="406" height="76"><feFlood flood-opacity="0" result="BackgroundImageFix"/><feColorMatrix in="SourceAlpha" type="matrix" values="0 0 0 0 0 0 0 0 0 0 0 0 0 0 0 0 0 0 127 0"/><feOffset dy="4" dx="0"/><feGaussianBlur stdDeviation="5"/><feColorMatrix type="matrix" values="0 0 0 0 0 0 0 0 0 0 0 0 0 0 0 0 0 0 0.30000001192092896 0"/><feBlend mode="normal" in2="BackgroundImageFix" result="effect1_dropShadow"/><feBlend mode="normal" in="SourceGraphic" in2="effect1_dropShadow" result="shape"/></filter></defs><g><g filter="url(#master_svg0_173_407)"><rect x="15" y="11" width="366" height="36" rx="6" fill="#D8D8D8" fill-opacity="0"/><rect x="15.5" y="11.5" width="365" height="35" rx="5.5" fill-opacity="0" stroke-opacity="1" stroke="#000000" fill="none" stroke-width="1"/></g><g><path d="M41.784,37.7381L37.792699999999996,33.737700000000004C38.9983,32.2853,39.723600000000005,30.418,39.723600000000005,28.38092C39.723600000000005,23.75226,35.9799,20,31.36178,20C26.74369,20,23,23.75226,23,28.38092C23,33.0096,26.74369,36.7618,31.36178,36.7618C33.416399999999996,36.7618,35.2979,36.0191,36.7536,34.787L40.741,38.783500000000004C40.8851,38.9279,41.0738,39,41.2625,39C41.4512,39,41.64,38.927800000000005,41.784,38.783500000000004C42.072,38.4948,42.072,38.0268,41.784,37.7381ZM31.36178,35.283500000000004C30.43142,35.283500000000004,29.52967,35.1012,28.68157,34.7417C27.86168,34.3941,27.12502,33.8962,26.49206,33.2618C25.8591,32.6274,25.36234,31.889,25.01555,31.0673C24.65683,30.2172,24.47495,29.313409999999998,24.47495,28.3809C24.47495,27.44839,24.65683,26.5446,25.01555,25.69455C25.36234,24.87278,25.8591,24.134439999999998,26.49206,23.50003C27.12502,22.86562,27.86166,22.36773,28.68157,22.02014C29.52965,21.6606,30.4314,21.4783,31.36178,21.4783C32.29214,21.4783,33.1939,21.6606,34.042,22.02014C34.8619,22.36773,35.5985,22.86562,36.2315,23.50003C36.8644,24.134439999999998,37.3612,24.87276,37.708,25.69455C38.0667,26.54458,38.248599999999996,27.44839,38.248599999999996,28.3809C38.248599999999996,29.313409999999998,38.0667,30.2172,37.708,31.0673C37.3612,31.889,36.8645,32.6274,36.2315,33.2618C35.5985,33.8962,34.8619,34.3941,34.042,34.7417C33.1939,35.1012,32.29214,35.283500000000004,31.36178,35.283500000000004Z" fill="#000000" fill-opacity="1"/></g><g><rect x="331" y="17" width="44" height="24" rx="4" fill="#000000" fill-opacity="1"/></g><g><path d="M342.992,22.91606L342.992,25.344L341.552,25.344L341.552,26.184L342.992,26.184L342.992,28.752000000000002L341.468,29.292L341.708,30.144L342.992,29.652L342.992,32.844C342.992,33,342.932,33.036,342.8,33.036C342.656,33.048,342.236,33.048,341.768,33.036C341.888,33.288,341.996,33.672,342.02,33.9C342.728,33.9122,343.172,33.876,343.46,33.732C343.748,33.576,343.844,33.324,343.844,32.844L343.844,29.328L345.188,28.8L345.032,27.984L343.844,28.439999999999998L343.844,26.184L345.068,26.184L345.068,25.344L343.844,25.344L343.844,22.91606L342.992,22.91606ZM345.548,29.52L345.548,30.288L346.088,30.288L345.992,30.323999999999998C346.496,31.128,347.18,31.811999999999998,348.008,32.364000000000004C346.988,32.808,345.824,33.084,344.648,33.24C344.804,33.432,344.972,33.768,345.056,33.984899999999996C346.388,33.768,347.684,33.408,348.812,32.856C349.76,33.348,350.84,33.708,352.004,33.9366C352.124,33.708,352.352,33.372,352.544,33.192C351.5,33.024,350.516,32.748,349.652,32.376C350.636,31.728,351.44,30.864,351.932,29.747999999999998L351.392,29.484L351.236,29.52L349.196,29.52L349.196,28.356L351.98,28.356L351.98,23.904L349.676,23.904L349.676,24.648L351.164,24.648L351.164,25.776L349.724,25.776L349.724,26.46L351.164,26.46L351.164,27.612000000000002L349.196,27.612000000000002L349.196,22.90406L348.368,22.90406L348.368,27.612000000000002L346.484,27.612000000000002L346.484,26.472L347.792,26.472L347.792,25.776L346.484,25.776L346.484,24.672C347.108,24.48,347.756,24.240000000000002,348.284,23.951999999999998L347.636,23.34975C347.192,23.65106,346.4,23.988,345.704,24.216L345.704,28.356L348.368,28.356L348.368,29.52L345.548,29.52ZM350.708,30.288C350.252,30.972,349.604,31.524,348.824,31.956C348.032,31.5,347.372,30.948,346.892,30.288L350.708,30.288ZM360.596,31.752000000000002C361.616,32.304,362.9,33.144,363.524,33.696L364.256,33.168C363.572,32.616,362.276,31.823999999999998,361.28,31.308L360.596,31.752000000000002ZM356.48,31.368000000000002C355.796,32.016,354.716,32.688,353.73199999999997,33.132C353.936,33.275999999999996,354.272,33.564,354.428,33.732C355.376,33.24,356.528,32.448,357.296,31.692L356.48,31.368000000000002ZM355.328,29.172C355.532,29.088,355.844,29.052,358.052,28.908C357.068,29.375999999999998,356.228,29.736,355.844,29.880000000000003C355.148,30.168,354.62,30.336,354.224,30.372C354.308,30.6,354.428,31.008,354.464,31.164C354.776,31.055999999999997,355.244,31.008,358.748,30.78L358.748,32.88C358.748,33.024,358.7,33.072,358.496,33.072C358.316,33.096000000000004,357.668,33.096000000000004,356.924,33.072C357.068,33.312,357.212,33.647999999999996,357.26,33.9C358.136,33.9,358.748,33.9,359.12,33.756C359.516,33.624,359.624,33.384,359.624,32.903999999999996L359.624,30.7378L362.564,30.558C362.888,30.8934,363.176,31.2287,363.368,31.4919L364.064,31.0133C363.548,30.354,362.468,29.3544,361.616,28.656L360.98,29.064C361.29200000000003,29.328,361.628,29.628,361.952,29.939999999999998L356.708,30.216C358.4,29.58,360.104,28.776,361.724,27.792L361.076,27.240000000000002C360.548,27.588,359.972,27.912,359.384,28.224L356.708,28.380000000000003C357.536,27.972,358.364,27.48,359.12,26.94L358.76,26.664L363.344,26.664L363.344,28.14L364.23199999999997,28.14L364.23199999999997,25.884L359.468,25.884L359.468,24.768L364.076,24.768L364.076,23.976L359.468,23.976L359.468,22.90388L358.532,22.90388L358.532,23.976L353.912,23.976L353.912,24.768L358.532,24.768L358.532,25.884L353.792,25.884L353.792,28.14L354.644,28.14L354.644,26.664L358.20799999999997,26.664C357.356,27.323999999999998,356.288,27.9,355.952,28.067999999999998C355.616,28.247999999999998,355.316,28.356,355.088,28.380000000000003C355.172,28.596,355.292,29.003999999999998,355.328,29.172Z" fill="#FFFFFF" fill-opacity="1"/></g></g></svg>