<?xml version="1.0" standalone="no"?><!DOCTYPE svg PUBLIC "-//W3C//DTD SVG 1.1//EN" "http://www.w3.org/Graphics/SVG/1.1/DTD/svg11.dtd"><svg t="1717163854416" class="icon" viewBox="0 0 1024 1024" version="1.1" xmlns="http://www.w3.org/2000/svg" p-id="7034" xmlns:xlink="http://www.w3.org/1999/xlink" width="81" height="81"><path d="M512 0C229.239467 0 0 229.239467 0 512 0 794.760533 229.239467 1024 512 1024c282.760533 0 512-229.239467 512-512C1024 229.239467 794.760533 0 512 0zM678.980267 691.6096l-14.9504 14.882133c-12.424533 12.424533-33.3824 12.970667-46.421333 1.2288l-171.554133-147.456C432.9472 548.590933 422.980267 524.561067 423.867733 507.016533L441.7536 223.914667c0.887467-17.544533 15.9744-31.9488 33.5872-31.9488l21.026133 0c17.6128 0 32.699733 14.336 33.5872 31.9488l14.609067 231.8336c0.887467 17.6128 11.195733 42.734933 22.869333 55.842133L680.277333 645.12C691.950933 658.2272 691.4048 679.185067 678.980267 691.6096z" fill="#8a8a8a" p-id="7035"></path></svg>