<svg xmlns="http://www.w3.org/2000/svg" xmlns:xlink="http://www.w3.org/1999/xlink" fill="none" version="1.1" width="140" height="45" viewBox="0 0 140 45"><g><path d="M20.736,17.424L21.42,12.744L20.196,10.404L28.584,10.404L27.576,17.424L31.896,17.424L31.248,22.068L26.928,22.068L25.596,31.284L30.708,31.284L30.096,35.568L13.032,35.568L13.644,31.284L18.792,31.284L20.088,22.068L15.624,22.068L16.272,17.424L20.736,17.424ZM12.744,32.328L9.972,28.836L8.928,36.288L3.528,36.288L4.716,27.864L1.224,27.864L8.712,18.108L2.988,18.108L3.42,14.904L14.256,14.904L13.644,19.152L10.764,23.076L10.728,23.328L13.536,26.82L12.744,32.328ZM13.212,14.112L7.416,14.112L6.624,11.34L5.832,10.476L12.276,10.476L13.212,14.112ZM35.064,35.676L38.304,12.6L36.864,11.052L64.296,11.052L63.828,14.328L44.244,14.328L41.724,32.364L62.388,32.364L61.92,35.676L35.064,35.676ZM53.46,19.188L56.664,15.84L62.604,15.84L56.124,22.572L56.016,22.608L61.416,30.888L55.476,30.888L52.74,26.244L49.5,30.888L43.524,30.888L50.04,22.86L49.896,22.788L45.576,15.732L51.516,15.732L53.46,19.188ZM67.32,36.324L73.656,25.128L70.272,25.128L70.776,21.672L95.4,21.672L93.672,33.948Q93.528,34.956,92.718,35.64Q91.908,36.324,90.864,36.324L83.736,36.324L86.976,32.976L88.056,25.128L80.496,25.128L74.16,36.324L67.32,36.324ZM75.024,20.664L68.184,20.664L75.78,11.232L75.096,10.404L83.304,10.404L75.024,20.664ZM92.88,10.404L98.28,20.664L91.44,20.664L86.04,10.404L92.88,10.404ZM110.952,33.696L111.312,31.104L100.296,31.104L100.728,28.008L112.788,28.008L116.712,26.496L103.752,26.496L104.184,23.292L128.088,23.292L127.584,26.532L122.832,28.008L129.42,28.008L128.988,31.104L118.656,31.104L118.188,34.452Q118.08,35.244,117.306,35.766Q116.532,36.288,115.488,36.288L107.892,36.288L110.952,33.696ZM129.096,15.912L128.196,22.356L103.5,22.356L104.4,15.912L129.096,15.912ZM113.832,12.06L113.868,11.808L112.68,10.476L121.428,10.476L121.212,12.06L131.508,12.06L131.112,14.832L103.104,14.832L103.5,12.06L113.832,12.06ZM121.716,20.016L121.968,18.288L110.88,18.288L110.628,20.016L121.716,20.016Z" fill="#000000" fill-opacity="1"/></g></svg>