<svg xmlns="http://www.w3.org/2000/svg" xmlns:xlink="http://www.w3.org/1999/xlink" fill="none" version="1.1" width="91.20852661132812" height="16.13302230834961" viewBox="0 0 91.20852661132812 16.13302230834961"><g><path d="M4.80465,0.130154C6.88798,1.77182,8.60632,3.68432,9.43715,6.25765C9.69548,5.93432,9.93215,5.52599,10.0188,4.83015C10.1046,4.13515,10.8021,3.95515,11.1771,4.58932C13.473,8.47599,13.4663,14.1993,8.44882,15.8943C7.95465,16.061,7.47548,15.5568,7.66715,15.0718C8.42881,13.151,8.52631,11.7735,8.17048,10.6943C7.88048,9.81265,7.25798,9.04349,6.26131,8.30515C5.76881,9.73015,4.41548,10.686,4.41548,12.2885C4.41548,13.2618,5.17548,14.3868,5.62715,15.2068C5.87715,15.661,5.47132,16.2193,4.96215,16.1218C-0.353685,15.1052,-1.35202,9.24515,1.74381,5.63848C3.01548,4.15515,3.79381,2.59682,3.79381,0.62182C3.79381,0.110154,4.40298,-0.18568,4.80465,0.130154ZM27.3545,6.89783L27.6205,5.07783L27.1445,4.16783L30.4065,4.16783L30.0145,6.89783L31.6945,6.89783L31.4425,8.70383L29.7625,8.70383L29.2445,12.2878L31.2325,12.2878L30.9945,13.9538L24.3585,13.9538L24.5965,12.2878L26.5985,12.2878L27.1025,8.70383L25.3665,8.70383L25.6185,6.89783L27.3545,6.89783ZM24.2465,12.6938L23.1685,11.3358L22.7625,14.2338L20.6625,14.2338L21.1245,10.9578L19.7665,10.9578L22.6785,7.16383L20.4525,7.16383L20.6205,5.91783L24.8345,5.91783L24.5965,7.56983L23.4765,9.09583L23.4625,9.19383L24.5545,10.5518L24.2465,12.6938ZM24.4285,5.60983L22.1745,5.60983L21.8665,4.53183L21.5585,4.19583L24.0645,4.19583L24.4285,5.60983ZM32.9265,13.9958L34.1865,5.02183L33.6265,4.41983L44.2945,4.41983L44.1125,5.69383L36.4965,5.69383L35.5165,12.7078L43.5525,12.7078L43.3705,13.9958L32.9265,13.9958ZM40.0805,7.58383L41.3265,6.28183L43.6365,6.28183L41.1165,8.89983L41.0745,8.91383L43.1745,12.1338L40.8645,12.1338L39.8005,10.3278L38.5405,12.1338L36.2165,12.1338L38.7505,9.01183L38.6945,8.98383L37.0145,6.23983L39.3245,6.23983L40.0805,7.58383ZM47.6965,13.2818L48.6345,6.70183L45.6805,6.70183L45.8205,5.35783L54.4165,5.35783L54.1505,6.70183L51.3225,6.70183L50.3845,13.2818L47.6965,13.2818ZM64.1745,5.35783Q64.3705,5.35783,64.5385,5.42783Q64.7065,5.49783,64.8255,5.62383Q64.9445,5.74983,64.9865,5.91783Q65.0285,6.08583,64.9725,6.29583L64.0345,13.2818L56.5025,13.2818Q56.3065,13.2818,56.1385,13.2118Q55.9705,13.1418,55.8515,13.0158Q55.7325,12.8898,55.6905,12.7148Q55.6485,12.5398,55.7045,12.3438L56.6425,5.35783L64.1745,5.35783ZM59.0645,6.70183L58.3925,11.9378L61.4865,11.9378L62.2845,6.70183L59.0645,6.70183ZM75.5285,5.35783L74.9965,9.65583Q74.8845,10.0618,74.5555,10.3278Q74.2265,10.5938,73.9185,10.5938L69.2145,10.5938L68.8085,13.2818L66.2605,13.2818L67.1985,5.74983L66.7925,5.35783L75.5285,5.35783ZM69.7605,6.70183L69.4805,9.24983L72.3085,9.24983L72.7145,6.70183L69.7605,6.70183ZM79.6585,13.2818L76.9985,13.2818L77.8805,7.00983L76.7885,7.16383L76.9985,5.70783L80.7925,5.17583L79.6585,13.2818ZM83.1025,6.26783Q83.1585,5.86183,83.4735,5.58883Q83.7885,5.31583,84.1945,5.31583L91.2085,5.31583L90.2285,12.3298Q90.1585,12.7358,89.8505,13.0088Q89.5425,13.2818,89.1365,13.2818L82.1225,13.2818L83.1025,6.26783ZM85.7205,6.63183L84.9645,11.9518L87.6105,11.9518L88.3665,6.63183L85.7205,6.63183Z" fill="#FF4400" fill-opacity="1"/></g></svg>